<svg width="439" height="580" viewBox="0 0 439 580" fill="none" xmlns="http://www.w3.org/2000/svg">
<path d="M0 0H439V580H0V0Z" fill="white"/>
<path d="M118.312 70.0938H139.875V75H112.281V29.5H118.312V70.0938ZM179.656 53.7188C179.656 58.1771 178.906 62.0729 177.406 65.4062C175.906 68.7188 173.781 71.25 171.031 73C168.281 74.75 165.073 75.625 161.406 75.625C157.823 75.625 154.646 74.75 151.875 73C149.104 71.2292 146.948 68.7188 145.406 65.4688C143.885 62.1979 143.104 58.4167 143.062 54.125V50.8438C143.062 46.4688 143.823 42.6042 145.344 39.25C146.865 35.8958 149.01 33.3333 151.781 31.5625C154.573 29.7708 157.76 28.875 161.344 28.875C164.99 28.875 168.198 29.7604 170.969 31.5312C173.76 33.2812 175.906 35.8333 177.406 39.1875C178.906 42.5208 179.656 46.4062 179.656 50.8438V53.7188ZM173.688 50.7812C173.688 45.3854 172.604 41.25 170.438 38.375C168.271 35.4792 165.24 34.0312 161.344 34.0312C157.552 34.0312 154.562 35.4792 152.375 38.375C150.208 41.25 149.094 45.25 149.031 50.375V53.7188C149.031 58.9479 150.125 63.0625 152.312 66.0625C154.521 69.0417 157.552 70.5312 161.406 70.5312C165.281 70.5312 168.281 69.125 170.406 66.3125C172.531 63.4792 173.625 59.4271 173.688 54.1562V50.7812ZM222.25 69.0312C220.708 71.2396 218.552 72.8958 215.781 74C213.031 75.0833 209.823 75.625 206.156 75.625C202.448 75.625 199.156 74.7604 196.281 73.0312C193.406 71.2812 191.177 68.8021 189.594 65.5938C188.031 62.3854 187.229 58.6667 187.188 54.4375V50.4688C187.188 43.6146 188.781 38.3021 191.969 34.5312C195.177 30.7604 199.677 28.875 205.469 28.875C210.219 28.875 214.042 30.0938 216.938 32.5312C219.833 34.9479 221.604 38.3854 222.25 42.8438H216.25C215.125 36.8229 211.542 33.8125 205.5 33.8125C201.479 33.8125 198.427 35.2292 196.344 38.0625C194.281 40.875 193.24 44.9583 193.219 50.3125V54.0312C193.219 59.1354 194.385 63.1979 196.719 66.2188C199.052 69.2188 202.208 70.7188 206.188 70.7188C208.438 70.7188 210.406 70.4688 212.094 69.9688C213.781 69.4688 215.177 68.625 216.281 67.4375V57.2188H205.75V52.3438H222.25V69.0312Z" fill="#271E1E"/>
<path d="M243.719 75H237.719V29.5H243.719V75ZM289.688 75H283.656L260.75 39.9375V75H254.719V29.5H260.75L283.719 64.7188V29.5H289.688V75Z" fill="#16BA3A"/>
<rect x="65.5" y="103.5" width="289" height="59" rx="12.5" stroke="#16BA3A" stroke-width="3" stroke-miterlimit="1.12759" stroke-linecap="round"/>
<rect x="65.5" y="201.5" width="289" height="59" rx="12.5" stroke="#16BA3A" stroke-width="3" stroke-miterlimit="1.12759" stroke-linecap="round"/>
<rect x="55" y="441" width="282" height="56" rx="11" fill="#16BA3A"/>
<path d="M144.363 479.24H156.492V482H140.971V456.406H144.363V479.24ZM178.869 470.029C178.869 472.537 178.447 474.729 177.604 476.604C176.76 478.467 175.564 479.891 174.018 480.875C172.471 481.859 170.666 482.352 168.604 482.352C166.588 482.352 164.801 481.859 163.242 480.875C161.684 479.879 160.471 478.467 159.604 476.639C158.748 474.799 158.309 472.672 158.285 470.258V468.412C158.285 465.951 158.713 463.777 159.568 461.891C160.424 460.004 161.631 458.562 163.189 457.566C164.76 456.559 166.553 456.055 168.568 456.055C170.619 456.055 172.424 456.553 173.982 457.549C175.553 458.533 176.76 459.969 177.604 461.855C178.447 463.73 178.869 465.916 178.869 468.412V470.029ZM175.512 468.377C175.512 465.342 174.902 463.016 173.684 461.398C172.465 459.77 170.76 458.955 168.568 458.955C166.436 458.955 164.754 459.77 163.523 461.398C162.305 463.016 161.678 465.266 161.643 468.148V470.029C161.643 472.971 162.258 475.285 163.488 476.973C164.73 478.648 166.436 479.486 168.604 479.486C170.783 479.486 172.471 478.695 173.666 477.113C174.861 475.52 175.477 473.24 175.512 470.275V468.377ZM202.828 478.643C201.961 479.885 200.748 480.816 199.189 481.438C197.643 482.047 195.838 482.352 193.775 482.352C191.689 482.352 189.838 481.865 188.221 480.893C186.604 479.908 185.35 478.514 184.459 476.709C183.58 474.904 183.129 472.812 183.105 470.434V468.201C183.105 464.346 184.002 461.357 185.795 459.236C187.6 457.115 190.131 456.055 193.389 456.055C196.061 456.055 198.211 456.74 199.84 458.111C201.469 459.471 202.465 461.404 202.828 463.912H199.453C198.82 460.525 196.805 458.832 193.406 458.832C191.145 458.832 189.428 459.629 188.256 461.223C187.096 462.805 186.51 465.102 186.498 468.113V470.205C186.498 473.076 187.154 475.361 188.467 477.061C189.779 478.748 191.555 479.592 193.793 479.592C195.059 479.592 196.166 479.451 197.115 479.17C198.064 478.889 198.85 478.414 199.471 477.746V471.998H193.547V469.256H202.828V478.643Z" fill="#271E1E"/>
<path d="M215.592 481H212.217V455.406H215.592V481ZM241.449 481H238.057L225.172 461.277V481H221.779V455.406H225.172L238.092 475.217V455.406H241.449V481Z" fill="white"/>
<path d="M129.19 131.044L131.788 126.047H133.278L129.847 132.288V136H128.534V132.288L125.103 126.047H126.606L129.19 131.044ZM133.579 132.233C133.579 131.509 133.72 130.857 134.003 130.278C134.29 129.7 134.687 129.253 135.192 128.938C135.703 128.624 136.284 128.467 136.936 128.467C137.943 128.467 138.756 128.815 139.376 129.513C140 130.21 140.312 131.137 140.312 132.295V132.384C140.312 133.104 140.174 133.751 139.896 134.325C139.622 134.895 139.228 135.339 138.713 135.658C138.202 135.977 137.615 136.137 136.949 136.137C135.947 136.137 135.133 135.788 134.509 135.091C133.889 134.394 133.579 133.471 133.579 132.322V132.233ZM134.851 132.384C134.851 133.204 135.04 133.863 135.418 134.359C135.801 134.856 136.311 135.104 136.949 135.104C137.592 135.104 138.102 134.854 138.48 134.353C138.859 133.847 139.048 133.14 139.048 132.233C139.048 131.422 138.854 130.766 138.467 130.265C138.084 129.759 137.574 129.506 136.936 129.506C136.311 129.506 135.808 129.754 135.425 130.251C135.042 130.748 134.851 131.459 134.851 132.384ZM146.465 135.269C145.973 135.847 145.25 136.137 144.298 136.137C143.509 136.137 142.908 135.909 142.493 135.453C142.083 134.993 141.876 134.314 141.871 133.416V128.604H143.136V133.382C143.136 134.503 143.591 135.063 144.503 135.063C145.469 135.063 146.112 134.703 146.431 133.983V128.604H147.695V136H146.492L146.465 135.269ZM153.198 129.738C153.007 129.706 152.799 129.69 152.576 129.69C151.747 129.69 151.184 130.044 150.888 130.75V136H149.623V128.604H150.854L150.874 129.458C151.289 128.797 151.877 128.467 152.638 128.467C152.884 128.467 153.071 128.499 153.198 128.562V129.738ZM159.036 128.604L159.077 129.533C159.642 128.822 160.381 128.467 161.292 128.467C162.855 128.467 163.644 129.349 163.657 131.112V136H162.393V131.105C162.388 130.572 162.265 130.178 162.023 129.923C161.786 129.668 161.415 129.54 160.909 129.54C160.499 129.54 160.139 129.649 159.829 129.868C159.519 130.087 159.278 130.374 159.104 130.729V136H157.84V128.604H159.036ZM170.131 136C170.058 135.854 169.999 135.594 169.953 135.221C169.365 135.831 168.663 136.137 167.848 136.137C167.118 136.137 166.519 135.932 166.05 135.521C165.585 135.107 165.353 134.583 165.353 133.949C165.353 133.179 165.644 132.582 166.228 132.158C166.815 131.73 167.64 131.516 168.702 131.516H169.933V130.935C169.933 130.493 169.8 130.142 169.536 129.882C169.272 129.618 168.882 129.485 168.367 129.485C167.916 129.485 167.538 129.599 167.232 129.827C166.927 130.055 166.774 130.331 166.774 130.654H165.503C165.503 130.285 165.633 129.93 165.893 129.588C166.157 129.242 166.512 128.968 166.959 128.768C167.41 128.567 167.905 128.467 168.442 128.467C169.295 128.467 169.962 128.681 170.445 129.109C170.928 129.533 171.179 130.119 171.197 130.866V134.271C171.197 134.95 171.284 135.49 171.457 135.891V136H170.131ZM168.032 135.036C168.429 135.036 168.805 134.934 169.16 134.729C169.516 134.523 169.773 134.257 169.933 133.929V132.411H168.941C167.392 132.411 166.617 132.865 166.617 133.771C166.617 134.168 166.749 134.478 167.014 134.701C167.278 134.924 167.618 135.036 168.032 135.036ZM174.369 128.604L174.403 129.424C174.946 128.786 175.677 128.467 176.598 128.467C177.632 128.467 178.336 128.863 178.71 129.656C178.956 129.301 179.275 129.014 179.667 128.795C180.063 128.576 180.531 128.467 181.068 128.467C182.691 128.467 183.516 129.326 183.543 131.044V136H182.278V131.119C182.278 130.59 182.158 130.196 181.916 129.937C181.674 129.672 181.269 129.54 180.699 129.54C180.23 129.54 179.84 129.681 179.53 129.964C179.22 130.242 179.04 130.618 178.99 131.092V136H177.719V131.153C177.719 130.078 177.192 129.54 176.14 129.54C175.31 129.54 174.743 129.893 174.438 130.6V136H173.173V128.604H174.369ZM188.526 136.137C187.524 136.137 186.708 135.809 186.079 135.152C185.45 134.492 185.136 133.61 185.136 132.507V132.274C185.136 131.541 185.275 130.887 185.553 130.312C185.835 129.734 186.227 129.283 186.729 128.959C187.234 128.631 187.781 128.467 188.369 128.467C189.331 128.467 190.078 128.784 190.611 129.417C191.145 130.05 191.411 130.957 191.411 132.138V132.664H186.4C186.419 133.393 186.631 133.983 187.036 134.435C187.446 134.881 187.966 135.104 188.595 135.104C189.041 135.104 189.42 135.013 189.729 134.831C190.039 134.649 190.311 134.407 190.543 134.106L191.315 134.708C190.696 135.66 189.766 136.137 188.526 136.137ZM188.369 129.506C187.859 129.506 187.43 129.693 187.084 130.066C186.738 130.436 186.523 130.955 186.441 131.625H190.146V131.529C190.11 130.887 189.937 130.39 189.627 130.039C189.317 129.684 188.898 129.506 188.369 129.506ZM192.908 135.337C192.908 135.118 192.972 134.936 193.1 134.79C193.232 134.644 193.428 134.571 193.688 134.571C193.947 134.571 194.143 134.644 194.275 134.79C194.412 134.936 194.48 135.118 194.48 135.337C194.48 135.547 194.412 135.722 194.275 135.863C194.143 136.005 193.947 136.075 193.688 136.075C193.428 136.075 193.232 136.005 193.1 135.863C192.972 135.722 192.908 135.547 192.908 135.337ZM196.6 135.337C196.6 135.118 196.663 134.936 196.791 134.79C196.923 134.644 197.119 134.571 197.379 134.571C197.639 134.571 197.835 134.644 197.967 134.79C198.104 134.936 198.172 135.118 198.172 135.337C198.172 135.547 198.104 135.722 197.967 135.863C197.835 136.005 197.639 136.075 197.379 136.075C197.119 136.075 196.923 136.005 196.791 135.863C196.663 135.722 196.6 135.547 196.6 135.337ZM200.291 135.337C200.291 135.118 200.355 134.936 200.482 134.79C200.615 134.644 200.811 134.571 201.07 134.571C201.33 134.571 201.526 134.644 201.658 134.79C201.795 134.936 201.863 135.118 201.863 135.337C201.863 135.547 201.795 135.722 201.658 135.863C201.526 136.005 201.33 136.075 201.07 136.075C200.811 136.075 200.615 136.005 200.482 135.863C200.355 135.722 200.291 135.547 200.291 135.337Z" fill="#393838"/>
<path d="M122.19 231.044L124.788 226.047H126.278L122.847 232.288V236H121.534V232.288L118.103 226.047H119.606L122.19 231.044ZM126.579 232.233C126.579 231.509 126.72 230.857 127.003 230.278C127.29 229.7 127.687 229.253 128.192 228.938C128.703 228.624 129.284 228.467 129.936 228.467C130.943 228.467 131.756 228.815 132.376 229.513C133 230.21 133.312 231.137 133.312 232.295V232.384C133.312 233.104 133.174 233.751 132.896 234.325C132.622 234.895 132.228 235.339 131.713 235.658C131.202 235.977 130.615 236.137 129.949 236.137C128.947 236.137 128.133 235.788 127.509 235.091C126.889 234.394 126.579 233.471 126.579 232.322V232.233ZM127.851 232.384C127.851 233.204 128.04 233.863 128.418 234.359C128.801 234.856 129.311 235.104 129.949 235.104C130.592 235.104 131.102 234.854 131.48 234.353C131.859 233.847 132.048 233.14 132.048 232.233C132.048 231.422 131.854 230.766 131.467 230.265C131.084 229.759 130.574 229.506 129.936 229.506C129.311 229.506 128.808 229.754 128.425 230.251C128.042 230.748 127.851 231.459 127.851 232.384ZM139.465 235.269C138.973 235.847 138.25 236.137 137.298 236.137C136.509 236.137 135.908 235.909 135.493 235.453C135.083 234.993 134.876 234.314 134.871 233.416V228.604H136.136V233.382C136.136 234.503 136.591 235.063 137.503 235.063C138.469 235.063 139.112 234.703 139.431 233.983V228.604H140.695V236H139.492L139.465 235.269ZM146.198 229.738C146.007 229.706 145.799 229.69 145.576 229.69C144.747 229.69 144.184 230.044 143.888 230.75V236H142.623V228.604H143.854L143.874 229.458C144.289 228.797 144.877 228.467 145.638 228.467C145.884 228.467 146.071 228.499 146.198 228.562V229.738ZM152.036 228.604L152.077 229.533C152.642 228.822 153.381 228.467 154.292 228.467C155.855 228.467 156.644 229.349 156.657 231.112V236H155.393V231.105C155.388 230.572 155.265 230.178 155.023 229.923C154.786 229.668 154.415 229.54 153.909 229.54C153.499 229.54 153.139 229.649 152.829 229.868C152.519 230.087 152.278 230.374 152.104 230.729V236H150.84V228.604H152.036ZM163.131 236C163.058 235.854 162.999 235.594 162.953 235.221C162.365 235.831 161.663 236.137 160.848 236.137C160.118 236.137 159.519 235.932 159.05 235.521C158.585 235.107 158.353 234.583 158.353 233.949C158.353 233.179 158.644 232.582 159.228 232.158C159.815 231.73 160.64 231.516 161.702 231.516H162.933V230.935C162.933 230.493 162.8 230.142 162.536 229.882C162.272 229.618 161.882 229.485 161.367 229.485C160.916 229.485 160.538 229.599 160.232 229.827C159.927 230.055 159.774 230.331 159.774 230.654H158.503C158.503 230.285 158.633 229.93 158.893 229.588C159.157 229.242 159.512 228.968 159.959 228.768C160.41 228.567 160.905 228.467 161.442 228.467C162.295 228.467 162.962 228.681 163.445 229.109C163.928 229.533 164.179 230.119 164.197 230.866V234.271C164.197 234.95 164.284 235.49 164.457 235.891V236H163.131ZM161.032 235.036C161.429 235.036 161.805 234.934 162.16 234.729C162.516 234.523 162.773 234.257 162.933 233.929V232.411H161.941C160.392 232.411 159.617 232.865 159.617 233.771C159.617 234.168 159.749 234.478 160.014 234.701C160.278 234.924 160.618 235.036 161.032 235.036ZM167.369 228.604L167.403 229.424C167.946 228.786 168.677 228.467 169.598 228.467C170.632 228.467 171.336 228.863 171.71 229.656C171.956 229.301 172.275 229.014 172.667 228.795C173.063 228.576 173.531 228.467 174.068 228.467C175.691 228.467 176.516 229.326 176.543 231.044V236H175.278V231.119C175.278 230.59 175.158 230.196 174.916 229.937C174.674 229.672 174.269 229.54 173.699 229.54C173.23 229.54 172.84 229.681 172.53 229.964C172.22 230.242 172.04 230.618 171.99 231.092V236H170.719V231.153C170.719 230.078 170.192 229.54 169.14 229.54C168.31 229.54 167.743 229.893 167.438 230.6V236H166.173V228.604H167.369ZM181.526 236.137C180.524 236.137 179.708 235.809 179.079 235.152C178.45 234.492 178.136 233.61 178.136 232.507V232.274C178.136 231.541 178.275 230.887 178.553 230.312C178.835 229.734 179.227 229.283 179.729 228.959C180.234 228.631 180.781 228.467 181.369 228.467C182.331 228.467 183.078 228.784 183.611 229.417C184.145 230.05 184.411 230.957 184.411 232.138V232.664H179.4C179.419 233.393 179.631 233.983 180.036 234.435C180.446 234.881 180.966 235.104 181.595 235.104C182.041 235.104 182.42 235.013 182.729 234.831C183.039 234.649 183.311 234.407 183.543 234.106L184.315 234.708C183.696 235.66 182.766 236.137 181.526 236.137ZM181.369 229.506C180.859 229.506 180.43 229.693 180.084 230.066C179.738 230.436 179.523 230.955 179.441 231.625H183.146V231.529C183.11 230.887 182.937 230.39 182.627 230.039C182.317 229.684 181.898 229.506 181.369 229.506ZM185.908 235.337C185.908 235.118 185.972 234.936 186.1 234.79C186.232 234.644 186.428 234.571 186.688 234.571C186.947 234.571 187.143 234.644 187.275 234.79C187.412 234.936 187.48 235.118 187.48 235.337C187.48 235.547 187.412 235.722 187.275 235.863C187.143 236.005 186.947 236.075 186.688 236.075C186.428 236.075 186.232 236.005 186.1 235.863C185.972 235.722 185.908 235.547 185.908 235.337ZM189.6 235.337C189.6 235.118 189.663 234.936 189.791 234.79C189.923 234.644 190.119 234.571 190.379 234.571C190.639 234.571 190.835 234.644 190.967 234.79C191.104 234.936 191.172 235.118 191.172 235.337C191.172 235.547 191.104 235.722 190.967 235.863C190.835 236.005 190.639 236.075 190.379 236.075C190.119 236.075 189.923 236.005 189.791 235.863C189.663 235.722 189.6 235.547 189.6 235.337ZM193.291 235.337C193.291 235.118 193.355 234.936 193.482 234.79C193.615 234.644 193.811 234.571 194.07 234.571C194.33 234.571 194.526 234.644 194.658 234.79C194.795 234.936 194.863 235.118 194.863 235.337C194.863 235.547 194.795 235.722 194.658 235.863C194.526 236.005 194.33 236.075 194.07 236.075C193.811 236.075 193.615 236.005 193.482 235.863C193.355 235.722 193.291 235.547 193.291 235.337Z" fill="#393838"/>
<path d="M76.7227 316.51L78.7539 308.434H80.5605L77.4844 319H76.0195L73.4512 310.992L70.9512 319H69.4863L66.4199 308.434H68.2168L70.2969 316.344L72.7578 308.434H74.2129L76.7227 316.51ZM84.2129 309.713C85.0137 308.73 86.0553 308.238 87.3379 308.238C89.571 308.238 90.6973 309.498 90.7168 312.018V319H88.9102V312.008C88.9036 311.246 88.7279 310.683 88.3828 310.318C88.0443 309.954 87.5137 309.771 86.791 309.771C86.2051 309.771 85.6908 309.928 85.248 310.24C84.8053 310.553 84.4603 310.963 84.2129 311.471V319H82.4062V304H84.2129V309.713ZM92.9434 313.619C92.9434 312.584 93.1452 311.653 93.5488 310.826C93.959 309.999 94.5254 309.361 95.248 308.912C95.9772 308.463 96.8073 308.238 97.7383 308.238C99.1771 308.238 100.339 308.736 101.225 309.732C102.117 310.729 102.562 312.053 102.562 313.707V313.834C102.562 314.863 102.364 315.787 101.967 316.607C101.576 317.421 101.013 318.056 100.277 318.512C99.5482 318.967 98.7083 319.195 97.7578 319.195C96.3255 319.195 95.1634 318.697 94.2715 317.701C93.3861 316.705 92.9434 315.387 92.9434 313.746V313.619ZM94.7598 313.834C94.7598 315.006 95.0299 315.947 95.5703 316.656C96.1172 317.366 96.8464 317.721 97.7578 317.721C98.6758 317.721 99.4049 317.363 99.9453 316.646C100.486 315.924 100.756 314.915 100.756 313.619C100.756 312.46 100.479 311.523 99.9258 310.807C99.3789 310.084 98.6497 309.723 97.7383 309.723C96.8464 309.723 96.127 310.077 95.5801 310.787C95.0332 311.497 94.7598 312.512 94.7598 313.834ZM113.246 316.354L115.707 308.434H117.641L113.393 320.631C112.735 322.389 111.69 323.268 110.258 323.268L109.916 323.238L109.242 323.111V321.646L109.73 321.686C110.342 321.686 110.818 321.562 111.156 321.314C111.501 321.067 111.785 320.615 112.006 319.957L112.406 318.883L108.637 308.434H110.609L113.246 316.354ZM118.627 313.619C118.627 312.584 118.829 311.653 119.232 310.826C119.643 309.999 120.209 309.361 120.932 308.912C121.661 308.463 122.491 308.238 123.422 308.238C124.861 308.238 126.023 308.736 126.908 309.732C127.8 310.729 128.246 312.053 128.246 313.707V313.834C128.246 314.863 128.048 315.787 127.65 316.607C127.26 317.421 126.697 318.056 125.961 318.512C125.232 318.967 124.392 319.195 123.441 319.195C122.009 319.195 120.847 318.697 119.955 317.701C119.07 316.705 118.627 315.387 118.627 313.746V313.619ZM120.443 313.834C120.443 315.006 120.714 315.947 121.254 316.656C121.801 317.366 122.53 317.721 123.441 317.721C124.359 317.721 125.089 317.363 125.629 316.646C126.169 315.924 126.439 314.915 126.439 313.619C126.439 312.46 126.163 311.523 125.609 310.807C125.062 310.084 124.333 309.723 123.422 309.723C122.53 309.723 121.811 310.077 121.264 310.787C120.717 311.497 120.443 312.512 120.443 313.834ZM137.035 317.955C136.332 318.782 135.3 319.195 133.939 319.195C132.813 319.195 131.954 318.87 131.361 318.219C130.775 317.561 130.479 316.591 130.473 315.309V308.434H132.279V315.26C132.279 316.861 132.93 317.662 134.232 317.662C135.613 317.662 136.531 317.148 136.986 316.119V308.434H138.793V319H137.074L137.035 317.955ZM153.031 319C152.927 318.792 152.842 318.421 152.777 317.887C151.938 318.759 150.935 319.195 149.77 319.195C148.728 319.195 147.872 318.902 147.201 318.316C146.537 317.724 146.205 316.975 146.205 316.07C146.205 314.97 146.622 314.117 147.455 313.512C148.295 312.9 149.473 312.594 150.99 312.594H152.748V311.764C152.748 311.132 152.559 310.631 152.182 310.26C151.804 309.882 151.247 309.693 150.512 309.693C149.867 309.693 149.327 309.856 148.891 310.182C148.454 310.507 148.236 310.901 148.236 311.363H146.42C146.42 310.836 146.605 310.328 146.977 309.84C147.354 309.345 147.862 308.954 148.5 308.668C149.145 308.382 149.851 308.238 150.619 308.238C151.837 308.238 152.79 308.544 153.48 309.156C154.171 309.762 154.529 310.598 154.555 311.666V316.529C154.555 317.499 154.678 318.271 154.926 318.844V319H153.031ZM150.033 317.623C150.6 317.623 151.137 317.477 151.645 317.184C152.152 316.891 152.52 316.51 152.748 316.041V313.873H151.332C149.118 313.873 148.012 314.521 148.012 315.816C148.012 316.383 148.201 316.826 148.578 317.145C148.956 317.464 149.441 317.623 150.033 317.623ZM162.494 310.055C162.221 310.009 161.924 309.986 161.605 309.986C160.421 309.986 159.617 310.491 159.193 311.5V319H157.387V308.434H159.145L159.174 309.654C159.766 308.71 160.606 308.238 161.693 308.238C162.045 308.238 162.312 308.284 162.494 308.375V310.055ZM168.354 319.195C166.921 319.195 165.756 318.727 164.857 317.789C163.959 316.845 163.51 315.585 163.51 314.01V313.678C163.51 312.63 163.708 311.695 164.105 310.875C164.509 310.048 165.069 309.404 165.785 308.941C166.508 308.473 167.289 308.238 168.129 308.238C169.503 308.238 170.57 308.691 171.332 309.596C172.094 310.501 172.475 311.796 172.475 313.482V314.234H165.316C165.342 315.276 165.645 316.119 166.225 316.764C166.811 317.402 167.553 317.721 168.451 317.721C169.089 317.721 169.63 317.59 170.072 317.33C170.515 317.07 170.902 316.725 171.234 316.295L172.338 317.154C171.452 318.515 170.124 319.195 168.354 319.195ZM168.129 309.723C167.4 309.723 166.788 309.99 166.293 310.523C165.798 311.051 165.492 311.793 165.375 312.75H170.668V312.613C170.616 311.695 170.368 310.986 169.926 310.484C169.483 309.977 168.884 309.723 168.129 309.723Z" fill="black"/>
<path d="M65.3301 374H63.5234V363.434H65.3301V374ZM63.377 360.631C63.377 360.338 63.4648 360.09 63.6406 359.889C63.8229 359.687 64.0898 359.586 64.4414 359.586C64.793 359.586 65.0599 359.687 65.2422 359.889C65.4245 360.09 65.5156 360.338 65.5156 360.631C65.5156 360.924 65.4245 361.168 65.2422 361.363C65.0599 361.559 64.793 361.656 64.4414 361.656C64.0898 361.656 63.8229 361.559 63.6406 361.363C63.4648 361.168 63.377 360.924 63.377 360.631ZM68.3574 363.785L67.332 363.082C67.9375 362.236 68.25 361.344 68.2695 360.406V359H70.0566V360.27C70.0501 360.921 69.8874 361.572 69.5684 362.223C69.2559 362.867 68.8522 363.388 68.3574 363.785ZM73.7383 363.434L73.7871 364.605C74.5618 363.694 75.6068 363.238 76.9219 363.238C78.3997 363.238 79.4056 363.805 79.9395 364.938C80.291 364.43 80.7467 364.02 81.3066 363.707C81.873 363.395 82.5404 363.238 83.3086 363.238C85.6263 363.238 86.8047 364.465 86.8438 366.92V374H85.0371V367.027C85.0371 366.272 84.8646 365.709 84.5195 365.338C84.1745 364.96 83.5951 364.771 82.7812 364.771C82.1107 364.771 81.554 364.973 81.1113 365.377C80.6686 365.774 80.4115 366.311 80.3398 366.988V374H78.5234V367.076C78.5234 365.54 77.7715 364.771 76.2676 364.771C75.0827 364.771 74.2721 365.276 73.8359 366.285V374H72.0293V363.434H73.7383ZM101.062 374C100.958 373.792 100.874 373.421 100.809 372.887C99.9688 373.759 98.9661 374.195 97.8008 374.195C96.7591 374.195 95.903 373.902 95.2324 373.316C94.5684 372.724 94.2363 371.975 94.2363 371.07C94.2363 369.97 94.653 369.117 95.4863 368.512C96.3262 367.9 97.5046 367.594 99.0215 367.594H100.779V366.764C100.779 366.132 100.59 365.631 100.213 365.26C99.8353 364.882 99.2786 364.693 98.543 364.693C97.8984 364.693 97.3581 364.856 96.9219 365.182C96.4857 365.507 96.2676 365.901 96.2676 366.363H94.4512C94.4512 365.836 94.6367 365.328 95.0078 364.84C95.3854 364.345 95.8932 363.954 96.5312 363.668C97.1758 363.382 97.8822 363.238 98.6504 363.238C99.8678 363.238 100.822 363.544 101.512 364.156C102.202 364.762 102.56 365.598 102.586 366.666V371.529C102.586 372.499 102.71 373.271 102.957 373.844V374H101.062ZM98.0645 372.623C98.6309 372.623 99.168 372.477 99.6758 372.184C100.184 371.891 100.551 371.51 100.779 371.041V368.873H99.3633C97.1497 368.873 96.043 369.521 96.043 370.816C96.043 371.383 96.2318 371.826 96.6094 372.145C96.987 372.464 97.472 372.623 98.0645 372.623Z" fill="black"/>
<rect x="127" y="348" width="175" height="39" rx="3" fill="#16BA3A"/>
<path d="M173.475 363.324H168.904V376H167.039V363.324H162.479V361.781H173.475V363.324ZM180.799 370.248H177.459V376H175.574V361.781H180.281C181.883 361.781 183.113 362.146 183.973 362.875C184.839 363.604 185.271 364.665 185.271 366.059C185.271 366.944 185.031 367.715 184.549 368.373C184.074 369.031 183.41 369.522 182.557 369.848L185.896 375.883V376H183.885L180.799 370.248ZM177.459 368.715H180.34C181.271 368.715 182.01 368.474 182.557 367.992C183.11 367.51 183.387 366.866 183.387 366.059C183.387 365.18 183.123 364.506 182.596 364.037C182.075 363.568 181.32 363.331 180.33 363.324H177.459V368.715ZM189.92 376H188.045V361.781H189.92V376ZM204.285 376H202.4L195.242 365.043V376H193.357V361.781H195.242L202.42 372.787V361.781H204.285V376ZM215.652 369.428H209.49V374.467H216.648V376H207.615V361.781H216.551V363.324H209.49V367.895H215.652V369.428ZM224.197 370.248H220.857V376H218.973V361.781H223.68C225.281 361.781 226.512 362.146 227.371 362.875C228.237 363.604 228.67 364.665 228.67 366.059C228.67 366.944 228.429 367.715 227.947 368.373C227.472 369.031 226.808 369.522 225.955 369.848L229.295 375.883V376H227.283L224.197 370.248ZM220.857 368.715H223.738C224.669 368.715 225.408 368.474 225.955 367.992C226.508 367.51 226.785 366.866 226.785 366.059C226.785 365.18 226.521 364.506 225.994 364.037C225.473 363.568 224.718 363.331 223.729 363.324H220.857V368.715Z" fill="black"/>
<path d="M250.252 374.832L251.5 376.706L252.748 374.832L259.244 365.082L260.797 362.75H257.995H245.005H242.203L243.756 365.082L250.252 374.832Z" fill="white" stroke="white" stroke-width="3"/>
</svg>
